<?xml version="1.0" encoding="utf-8"?>
<!-- Generator: Adobe Illustrator 24.0.2, SVG Export Plug-In . SVG Version: 6.00 Build 0)  -->
<svg version="1.1" id="Layer_1" xmlns="http://www.w3.org/2000/svg" xmlns:xlink="http://www.w3.org/1999/xlink" x="0px" y="0px"
	 viewBox="0 0 777.5 252.5" style="enable-background:new 0 0 777.5 252.5;" xml:space="preserve">
<style type="text/css">
	.st0{fill:#5D99D2;}
	.st1{fill:#FFFFFF;}
</style>
<g>
	<circle class="st0" cx="388.2" cy="124.5" r="110.3"/>
	<g>
		<path class="st1" d="M437.5,192c-2.1,0-4.2,0-6.5,0c0.4-1.7-0.6-2.6-1.6-3.6c-9.8-9.8-19.6-19.5-29.3-29.3c-0.4-0.4-0.6-0.9-1-1.4
			c-1.3,2.1-1.2,2.4,0.2,3.8c9.7,9.7,19.4,19.4,29.1,29.1c0.4,0.4,0.7,0.8,1.2,1.3c-1.9,0.3-3.3,0.1-4.7-1.4
			c-8.5-8.6-17.1-17.1-25.6-25.7c-0.4-0.4-0.8-0.7-1.3-1.2c-0.2,1.8-0.1,3.2,1.2,4.5c7.6,7.4,15.1,15,22.6,22.5
			c0.4,0.4,0.7,0.8,1.2,1.3c-1.9,0.3-3.3,0.1-4.7-1.3c-6.2-6.4-12.6-12.7-18.9-19c-0.4-0.4-0.7-0.9-1.1-1.2
			c-0.4,1.6-0.5,2.9,0.8,4.2c5.4,5.3,10.8,10.7,16.2,16.1c0.4,0.4,0.7,0.8,1.2,1.3c-1.9,0.3-3.4,0.1-4.8-1.4
			c-4-4.3-8.3-8.4-12.4-12.5c-0.3-0.3-0.7-0.6-1.2-1.1c-0.2,1.8-0.2,3.2,1.3,4.5c3.2,3,6.3,6.2,9.4,9.3c0.3,0.3,0.6,0.7,1.1,1.1
			c-1.9,0.3-3.4,0.2-4.7-1.4c-2.1-2.4-4.5-4.6-6.9-7c-0.2,1.8-0.4,3.3,1.1,4.5c1.4,1.1,2.6,2.4,4,3.7c-2.2,0.6-2.9,0.5-5.1-1.4
			c-0.1,0.6-0.1,1.1-0.2,1.6c-2.3,0-4.5,0-7,0c0-0.5,0-1,0-1.6c0-9,0-18,0-27c0-9.5,5.1-17.1,14-20.7c0.2-0.1,0.4-0.2,0.8-0.4
			c-4.7-3.5-7.3-8-7.2-13.9c0.1-4.6,1.9-8.5,5.3-11.7c6.6-6.1,17-5.6,23.1,1.2c5.8,6.4,6.1,17.7-3.1,24.5c0.3,0.2,0.6,0.3,0.9,0.5
			c6.3,2.7,10.5,7.2,12.6,13.7c0.1,0.3,0.2,0.5,0.3,0.8C437.5,168.9,437.5,180.5,437.5,192z M430.9,186.4c0.3-1.8,0.1-3.1-1.3-4.5
			c-9.1-9-18.2-18.1-27.2-27.2c-0.4-0.4-0.5-1-0.9-1.6c-0.8,1.2-1.2,1.8-1.6,2.3C410.3,165.8,420.5,176,430.9,186.4z M430.9,179.6
			c0.4-1.9-0.1-3.2-1.5-4.5c-7.9-7.7-15.6-15.6-23.5-23.4c-0.4-0.4-0.8-0.7-1.2-1.1c-0.6,0.5-1.2,0.9-1.7,1.2
			C412.4,161.1,421.6,170.4,430.9,179.6z M430.9,173c0.3-1.7,0.1-3-1.3-4.4c-6.4-6.2-12.7-12.6-19-18.9c-1.3-1.3-1.8-1.3-3.2-0.2
			C415.2,157.3,423,165.1,430.9,173z M430.9,166.2c0.5-1.8-0.2-3.1-1.6-4.5c-4.1-3.9-8.1-7.9-11.9-12c-1.3-1.4-2.7-1.5-4.2-1.3
			C419.1,154.4,425,160.3,430.9,166.2z M407.4,122.9c4.4,4.5,8.7,8.7,13,13c0.5-0.4,1-0.9,1.3-1.2c-4.4-4.4-8.6-8.6-12.9-12.9
			C408.4,122.1,407.8,122.5,407.4,122.9z M406,125.6c-0.8,1.3-0.7,2.3,0.6,3.5c2.7,2.5,5.2,5.1,7.8,7.7c1.4,1.4,1.7,1.5,3.4,0.5
			C413.9,133.4,410,129.5,406,125.6z M423.1,131.9c0.8-1.5,0.6-2.6-0.7-3.8c-2.6-2.4-5.1-5-7.6-7.5c-1.2-1.2-1.9-1.3-3.3-0.3
			C415.4,124.2,419.2,128,423.1,131.9z M430.3,158.9c-0.6-4.2-5.8-9.4-9.8-9.8C423.7,152.3,427,155.7,430.3,158.9z M410.7,137.1
			c-1.4-1.5-3.1-3.1-4.5-4.5C407.1,134.6,408.7,136.3,410.7,137.1z M418.9,120.9c1.1,1.1,2.6,2.6,3.7,3.7
			C421.9,122.9,420.4,121.4,418.9,120.9z"/>
		<path class="st1" d="M350.9,142.4c-9.5-7.2-8.5-19-2.2-25.1c6.6-6.4,17.1-6.2,23.3,0.5c6.2,6.6,6.2,18-2.9,24.7
			c0.3,0.2,0.6,0.3,0.9,0.4c8.5,3.8,13.3,10.4,13.6,19.8c0.3,9.5,0.1,19.1,0.1,28.6c0,0.2,0,0.4-0.1,0.7c-2.3,0-4.5,0-7,0
			c0-0.5,0-1.1,0-1.7c0-8.9,0-17.9,0-26.8c0-7.1-4.2-12.8-10.8-14.5c-3.9-1-7.9-1-11.7,0c-6.6,1.7-10.7,7.4-10.8,14.4
			c0,8.9,0,17.8,0,26.7c0,0.6,0,1.2,0,1.9c-2.3,0-4.6,0-7.1,0c0-0.6,0-1.2,0-1.8c0-8.4,0.1-16.7,0-25
			C336,154.2,340.8,146.7,350.9,142.4z M360.1,119.7c-5.1,0-9.2,4.1-9.2,9.2c0,5,4.1,9.1,9.2,9.2c5,0,9.2-4.1,9.2-9.2
			C369.3,123.7,365.3,119.7,360.1,119.7z"/>
		<path class="st1" d="M387.9,47.3c13.5,0,24.4,10.7,24.6,24c0.2,14-11.8,25.6-25.7,24.6c-2-0.1-3.3,0.4-4.7,1.7
			c-3.9,3.4-7.9,6.8-11.8,10.1c-1.6,1.4-3.3,1.5-4.7,0.5c-1.4-1-1.8-2.5-1.1-4.5c1.7-4.8,3.4-9.6,5.1-14.3c0.4-1,0.3-1.7-0.4-2.6
			c-5.7-7.4-7-15.6-3.5-24.2s10.2-13.5,19.4-15C386.1,47.3,387.1,47.4,387.9,47.3z M375.6,93.5c0.1,0,0.2,0.1,0.3,0.1
			c1.7-1.4,3.3-2.8,4.9-4.2c1.1-0.9,2.2-1.1,3.6-0.9c2.1,0.2,4.2,0.5,6.3,0.2c9.6-1.3,16.3-10.7,14.4-20.2
			c-1.9-9.8-11.8-16-21.3-13.5c-13,3.5-17.3,19.5-7.8,28.9c1.6,1.6,1.9,3.2,1.1,5.2C376.6,90.5,376.1,92,375.6,93.5z"/>
		<path class="st1" d="M382.8,81.1c-1.5-1.5-2.7-2.7-4.1-4.1c1.9-1.7,3.8-3.5,5.8-5.4c-2-1.9-3.9-3.6-5.8-5.4c1.4-1.4,2.7-2.5,4-3.8
			c1.7,1.7,3.4,3.5,5.3,5.4c1.9-2,3.7-3.8,5.5-5.7c1.3,1.5,2.4,2.8,3.6,4c-1.6,1.5-3.4,3.3-5.4,5.2c2.1,2,3.9,3.7,5.7,5.4
			c-1.4,1.4-2.6,2.5-3.8,3.7c-1.5-1.6-3.3-3.4-5.1-5.3C386.4,77.4,384.6,79.3,382.8,81.1z"/>
	</g>
</g>
<g>
	<circle class="st0" cx="388.8" cy="124.5" r="110.3"/>
	<g>
		<path class="st1" d="M382,116.4c1.2,0.8,2.5,1.5,3.7,2.5c3.9,3.3,6,7.6,6.1,12.8c0.1,10.4,0,20.8,0,31.3c0,4.9-3.4,9-8.1,9.6
			c-0.5,0.1-1,0-1.6,0c0,1.6,0,3,0,4.4c-0.1,4.1-1.8,7.2-5.3,9c-1.1,0.6-2.4,0.8-3.6,0.9c-2.2,0.2-4.4,0-6.6,0c-4.5,0-8.4-3.4-9.2-8
			c-0.1-0.7-0.2-1.5-0.2-2.2c0-1.3,0-2.7,0-4.1c-0.4,0-0.7,0-1,0c-10.8,0-21.5,0-32.3,0c-7.8,0-15.6,0-23.4,0c-1.8,0-3-1.3-2.9-3.1
			c0.1-1.3,1.2-2.5,2.5-2.6c0.3,0,0.5,0,0.8,0c23.3,0,46.5,0,69.8,0c3.9,0,7.7,0,11.6,0c2.2,0,4-1.8,4-4c0-10.5,0-20.9,0-31.4
			c0-5.7-4.8-10.5-10.3-10.5c-1,0-2,0-3.2,0c0.9-1,1.7-1.9,2.4-2.9c1.5-1.8,2.7-3.8,3.7-5.9c0.2-0.5,0.8-1,1.3-1.3
			c0.4-0.2,0.5-0.4,0.5-0.9c0-2.2-0.1-4.5,0-6.7c0.1-2.8,1.1-5.2,3.3-7c1.1-0.8,2.3-1.2,3.6-1.2c2.5,0,5.1,0.1,7.6,0
			c3.6-0.2,6.1,2.2,7,5.2c0.9,3.2,1,6.5,0,9.7c-0.8,2.7-2.5,4.5-5.3,5.1c-0.3,0.1-0.7,0.1-1,0.1c-3.5,0-6.9,0.1-10.4,0
			C384.2,115.2,383,115.8,382,116.4z M362.7,172.7c0,1.6-0.1,3.2,0,4.7c0.1,2.4,1.8,3.9,4.1,3.9c1.9,0,3.8,0,5.7,0s3.5-1.1,3.8-3.1
			c0.3-1.8,0.2-3.6,0.3-5.5C371.8,172.7,367.3,172.7,362.7,172.7z M386.2,109.5c0.2,0,0.2,0,0.3,0c2.8,0,5.7,0,8.5,0
			c1.4,0,2-0.3,2.1-1.7c0.2-1.7,0-3.4,0-5.1c0-0.2-0.1-0.5-0.2-0.7c-0.3-0.7-0.8-1.1-1.6-1.1c-2.4,0.1-4.8,0-7.2,0
			c-0.8,0-1.3,0.3-1.5,1c-0.2,0.4-0.4,0.9-0.4,1.4C386.2,105.4,386.2,107.4,386.2,109.5z"/>
		<path class="st1" d="M450,128.3c-0.3,0.9-0.6,1.9-0.9,2.9c-0.1,0.3,0,0.8,0.3,1c0.9,0.9,1.9,1.8,2.8,2.6c1.6,1.4,2.7,3.1,3.3,5.2
			c3.6,12.4,7.2,24.8,10.8,37.2c0.9,3-0.2,6.4-2.7,7.6c-2.1,1-4.4,1.7-6.7,2c-2.9,0.3-5.6-1.7-6.6-4.6c-4-10.8-7.9-21.6-11.9-32.4
			c-0.1-0.4-0.4-0.8-0.8-1c-5.5-3.6-11-7.2-16.5-10.7c-2.9-1.9-4.2-4.7-4.5-8.1c-0.2-2.4,0.7-4.5,1.3-6.7c2.3-8.2,4.6-16.4,6.9-24.7
			c1.1-3.7,2.8-7.1,5.8-9.5c0.7-0.6,1.6-1.1,2.3-1.5c1.4,1.7,2.7,3.2,3.9,4.8c-4.3,1.2-5.9,4.8-6.9,8.9c-0.8,3-1.6,6-2.4,8.9
			c-0.6,2.3-1.3,4.6-1.9,6.8c-1,3.6-2.1,7.2-3.1,10.8c-0.5,1.6-0.4,3.1,0.5,4.4c0.5,0.8,1.4,1.3,2.2,1.8c5.4,3.6,10.9,7.1,16.3,10.6
			c0.8,0.5,1.3,1.1,1.6,2c4.1,11.1,8.2,22.2,12.2,33.3c0.5,1.3,0.9,1.5,2.1,1.1c0.8-0.2,1.6-0.5,2.4-0.7c1-0.3,1.2-0.6,0.9-1.7
			c-1.4-5-2.9-10-4.3-14.9c-2.1-7.2-4.2-14.5-6.3-21.7c-0.3-1.1-0.9-2-1.7-2.8c-1.5-1.4-3-2.8-4.5-4.2c-1-0.9-1.3-2-1-3.2
			c0.5-1.9,1.2-3.7,1.7-5.5C446.5,127,448.2,127.6,450,128.3z"/>
		<path class="st1" d="M355.2,65.7c-3.7,3.7-6.7,7.4-6.8,12.8c0,2,0.8,3.7,1.7,5.3c0.9,1.7,1.7,3.4,2,5.3c0.5,2.9-0.8,6-3.2,7.5
			c-2.5,1.5-5.5,1.2-7.8-0.9c-1-0.9-1.9-2-2.8-3c-0.8,1.5-1.4,3.2-1.7,5c-1.1,6.2,1,11.4,4.6,16.1c0.6,0.8,1.3,1.5,1.9,2.2
			c1.2,1.2,1.2,2.9,0.2,4.1s-2.7,1.2-3.9,0.1c-4.7-4.6-7.7-10.1-8.5-16.8c-0.8-7,1.6-12.9,5.7-18.2c1.4-1.8,4-1.2,4.7,1
			c0.7,2,1.9,3.7,3.4,5.1c0.3,0.3,1,0.5,1.3,0.4c0.3-0.2,0.7-0.9,0.6-1.3c-0.1-1-0.5-1.9-0.9-2.8c-0.8-2-2-3.8-2.5-5.9
			c-1.1-4.4-0.2-8.6,2-12.4c3.5-6,8.4-10.5,14.4-13.8c1.4-0.8,2.6-0.5,3.6,0.5c0.9,1,1,2.3,0.2,3.7c-1.8,3-2.8,6.4-3.2,9.8
			c-0.5,3.7,1,6.9,3.1,9.8c2.4,3.4,5,6.6,7.3,10c2.1,2.9,3.5,6.2,4.2,9.8c1.1,6-0.4,11.3-4.4,15.9c-2,2.3-4.1,4.4-6.9,5.5
			c-0.7,0.3-1.6,0.5-2.3,0.3c-1.3-0.2-2.1-1.4-2.2-2.6c-0.1-1.2,0.8-2.3,2-2.9c4.2-2,7.1-5.2,8.3-9.8c1-3.8,0.1-7.6-2-10.9
			c-1.7-2.8-3.7-5.4-5.6-8c-1.9-2.5-3.8-5-5.2-7.9c-1.8-3.8-2.4-7.9-1.4-12.1C355.2,66.5,355.2,66.2,355.2,65.7z"/>
		<path class="st1" d="M413.3,138.5c1.4,1.3,2.7,2.6,4.1,4c0.2,0.2,0.3,0.6,0.2,0.8c-1.7,5.6-3.5,11.2-5.3,16.8s-3.5,11.2-5.3,16.9
			c0,0.1-0.1,0.2-0.1,0.5c1.8,0.2,3.6,0.4,5.3,0.5c0.2,0,0.4-0.3,0.5-0.6c3.1-7.1,6.2-14.2,9.3-21.3c1.2-2.7,2.3-5.4,3.5-8.1
			c1.6,1,3.2,2,4.8,3.1c-1.5,3.5-3,6.9-4.5,10.3c-2.7,6.2-5.4,12.3-8,18.5c-1.3,2.9-3.4,4.2-6.5,3.9c-1.6-0.2-3.2-0.2-4.7-0.5
			c-4-0.6-6.2-4.2-5-8.2c1.6-5.4,3.4-10.8,5.1-16.3c2.1-6.5,4.1-13,6.2-19.5C413.2,139,413.3,138.6,413.3,138.5z"/>
		<path class="st1" d="M454.8,102.6c2.9-1.6,5.8-3.3,8.6-4.9c3.8-2.1,8.2-0.8,10.3,3c2.2,3.8,1.2,8.8-2.4,11.1
			c-5.3,3.3-10.7,6.6-16.1,9.8c-3.2,1.9-7.5,0.9-9.7-2.3c-3-4.4-6-8.9-8.9-13.3c-1-1.5-0.7-3.3,0.6-4.2c1.3-0.9,3-0.4,4,1
			c2.9,4.3,5.8,8.6,8.7,12.9c0.8,1.1,1.8,1.4,2.9,0.7c5.1-3.1,10.1-6.1,15.1-9.2c1-0.6,1.4-1.5,1.3-2.6c-0.1-1-0.9-1.9-1.8-2
			c-0.5-0.1-1.1,0.1-1.5,0.3c-3.5,1.9-6.9,3.9-10.4,5.9c-1.6,0.9-3,0.6-4.1-0.9c-1.4-2.1-2.9-4.2-4.3-6.4c-1-1.5-0.8-3.2,0.5-4.2
			s2.9-0.7,4,0.8C452.8,99.5,453.8,101.1,454.8,102.6z"/>
		<path class="st1" d="M448.5,90.9c-6.9,0-12.4-5.8-12.4-12.9c0-7.2,5.6-12.9,12.6-12.9c6.8,0,12.4,5.8,12.4,13
			C461,85.2,455.5,90.9,448.5,90.9z M448.7,70.9c-3.8,0-6.9,3.2-7,7.1c0,3.9,3.1,7.2,6.9,7.2c3.8,0,7-3.2,7-7.1
			C455.5,74.1,452.5,70.9,448.7,70.9z"/>
		<path class="st1" d="M366.8,132.5c6.1,0,11,5.1,11,11.5c0,6.3-5,11.4-11.1,11.4c-6.2,0-11-5.1-11-11.6
			C355.8,137.6,360.8,132.5,366.8,132.5z M372.3,144c0-3.1-2.6-5.7-5.6-5.7s-5.5,2.6-5.5,5.7c0,3.2,2.5,5.8,5.5,5.8
			C369.8,149.7,372.3,147.1,372.3,144z"/>
		<path class="st1" d="M323.8,141.1c-6.9,0-13.7,0-20.6,0c-1.7,0-3-1.2-2.9-2.9c0-1.6,1.2-2.8,2.9-2.8c13.7,0,27.5,0,41.2,0
			c1.7,0,2.9,1.2,2.9,2.8c0,1.7-1.2,2.9-3,2.9C337.5,141.1,330.8,141.1,323.8,141.1z"/>
		<path class="st1" d="M323.8,152.6c-6.8,0-13.6,0-20.4,0c-1.8,0-3-1.2-3-2.9s1.3-2.8,3-2.8c13.7,0,27.4,0,41.1,0c1.8,0,3,1.2,3,2.9
			s-1.3,2.8-3,2.8C337.5,152.6,330.7,152.6,323.8,152.6z"/>
		<path class="st1" d="M332.3,121c-1,0-2,0-2.9,0c-9.7,0-19.4,0-29.1,0c-1.4,0-2.6-1-2.8-2.4c-0.2-1.5,0.6-2.8,2-3.2
			c0.3-0.1,0.6-0.1,0.9-0.1c6.4,0,12.8,0,19.1,0c2.9,0,5.7,0,8.6,0c0.5,0,0.7,0.2,0.9,0.6C330.2,117.6,331.2,119.3,332.3,121z"/>
		<path class="st1" d="M330.5,83.8c-1,1.9-2,3.8-3.1,5.7c-1,0-2.2,0-3.3,0c-8,0-15.9,0-23.9,0c-1.4,0-2.6-1-2.8-2.4s0.6-2.8,2-3.2
			c0.2-0.1,0.4-0.1,0.7-0.1c9.9,0,19.8,0,29.8,0C330.2,83.8,330.3,83.8,330.5,83.8z"/>
		<path class="st1" d="M363.5,101.2c0,2.9-0.8,5.1-2.2,7.1c-1,1.4-2.7,1.7-4,0.8c-1.3-1-1.5-2.7-0.5-4.1c1.2-1.8,1.5-3.6,0.6-5.6
			c-0.7-1.4-0.1-3,1.2-3.7c1.4-0.7,2.9-0.3,3.7,1.2C363.2,98.3,363.5,99.9,363.5,101.2z"/>
	</g>
</g>
</svg>
