<?xml version="1.0" encoding="utf-8"?>
<!-- Generator: Adobe Illustrator 24.0.2, SVG Export Plug-In . SVG Version: 6.00 Build 0)  -->
<svg version="1.1" id="Layer_1" xmlns="http://www.w3.org/2000/svg" xmlns:xlink="http://www.w3.org/1999/xlink" x="0px" y="0px"
	 viewBox="0 0 777.5 252.5" style="enable-background:new 0 0 777.5 252.5;" xml:space="preserve">
<style type="text/css">
	.st0{fill:#5D99D2;}
	.st1{fill:#FFFFFF;}
</style>
<g>
	<circle class="st0" cx="388.2" cy="124.5" r="110.3"/>
	<g>
		<path class="st1" d="M437.5,192c-2.1,0-4.2,0-6.5,0c0.4-1.7-0.6-2.6-1.6-3.6c-9.8-9.8-19.6-19.5-29.3-29.3c-0.4-0.4-0.6-0.9-1-1.4
			c-1.3,2.1-1.2,2.4,0.2,3.8c9.7,9.7,19.4,19.4,29.1,29.1c0.4,0.4,0.7,0.8,1.2,1.3c-1.9,0.3-3.3,0.1-4.7-1.4
			c-8.5-8.6-17.1-17.1-25.6-25.7c-0.4-0.4-0.8-0.7-1.3-1.2c-0.2,1.8-0.1,3.2,1.2,4.5c7.6,7.4,15.1,15,22.6,22.5
			c0.4,0.4,0.7,0.8,1.2,1.3c-1.9,0.3-3.3,0.1-4.7-1.3c-6.2-6.4-12.6-12.7-18.9-19c-0.4-0.4-0.7-0.9-1.1-1.2
			c-0.4,1.6-0.5,2.9,0.8,4.2c5.4,5.3,10.8,10.7,16.2,16.1c0.4,0.4,0.7,0.8,1.2,1.3c-1.9,0.3-3.4,0.1-4.8-1.4
			c-4-4.3-8.3-8.4-12.4-12.5c-0.3-0.3-0.7-0.6-1.2-1.1c-0.2,1.8-0.2,3.2,1.3,4.5c3.2,3,6.3,6.2,9.4,9.3c0.3,0.3,0.6,0.7,1.1,1.1
			c-1.9,0.3-3.4,0.2-4.7-1.4c-2.1-2.4-4.5-4.6-6.9-7c-0.2,1.8-0.4,3.3,1.1,4.5c1.4,1.1,2.6,2.4,4,3.7c-2.2,0.6-2.9,0.5-5.1-1.4
			c-0.1,0.6-0.1,1.1-0.2,1.6c-2.3,0-4.5,0-7,0c0-0.5,0-1,0-1.6c0-9,0-18,0-27c0-9.5,5.1-17.1,14-20.7c0.2-0.1,0.4-0.2,0.8-0.4
			c-4.7-3.5-7.3-8-7.2-13.9c0.1-4.6,1.9-8.5,5.3-11.7c6.6-6.1,17-5.6,23.1,1.2c5.8,6.4,6.1,17.7-3.1,24.5c0.3,0.2,0.6,0.3,0.9,0.5
			c6.3,2.7,10.5,7.2,12.6,13.7c0.1,0.3,0.2,0.5,0.3,0.8C437.5,168.9,437.5,180.5,437.5,192z M430.9,186.4c0.3-1.8,0.1-3.1-1.3-4.5
			c-9.1-9-18.2-18.1-27.2-27.2c-0.4-0.4-0.5-1-0.9-1.6c-0.8,1.2-1.2,1.8-1.6,2.3C410.3,165.8,420.5,176,430.9,186.4z M430.9,179.6
			c0.4-1.9-0.1-3.2-1.5-4.5c-7.9-7.7-15.6-15.6-23.5-23.4c-0.4-0.4-0.8-0.7-1.2-1.1c-0.6,0.5-1.2,0.9-1.7,1.2
			C412.4,161.1,421.6,170.4,430.9,179.6z M430.9,173c0.3-1.7,0.1-3-1.3-4.4c-6.4-6.2-12.7-12.6-19-18.9c-1.3-1.3-1.8-1.3-3.2-0.2
			C415.2,157.3,423,165.1,430.9,173z M430.9,166.2c0.5-1.8-0.2-3.1-1.6-4.5c-4.1-3.9-8.1-7.9-11.9-12c-1.3-1.4-2.7-1.5-4.2-1.3
			C419.1,154.4,425,160.3,430.9,166.2z M407.4,122.9c4.4,4.5,8.7,8.7,13,13c0.5-0.4,1-0.9,1.3-1.2c-4.4-4.4-8.6-8.6-12.9-12.9
			C408.4,122.1,407.8,122.5,407.4,122.9z M406,125.6c-0.8,1.3-0.7,2.3,0.6,3.5c2.7,2.5,5.2,5.1,7.8,7.7c1.4,1.4,1.7,1.5,3.4,0.5
			C413.9,133.4,410,129.5,406,125.6z M423.1,131.9c0.8-1.5,0.6-2.6-0.7-3.8c-2.6-2.4-5.1-5-7.6-7.5c-1.2-1.2-1.9-1.3-3.3-0.3
			C415.4,124.2,419.2,128,423.1,131.9z M430.3,158.9c-0.6-4.2-5.8-9.4-9.8-9.8C423.7,152.3,427,155.7,430.3,158.9z M410.7,137.1
			c-1.4-1.5-3.1-3.1-4.5-4.5C407.1,134.6,408.7,136.3,410.7,137.1z M418.9,120.9c1.1,1.1,2.6,2.6,3.7,3.7
			C421.9,122.9,420.4,121.4,418.9,120.9z"/>
		<path class="st1" d="M350.9,142.4c-9.5-7.2-8.5-19-2.2-25.1c6.6-6.4,17.1-6.2,23.3,0.5c6.2,6.6,6.2,18-2.9,24.7
			c0.3,0.2,0.6,0.3,0.9,0.4c8.5,3.8,13.3,10.4,13.6,19.8c0.3,9.5,0.1,19.1,0.1,28.6c0,0.2,0,0.4-0.1,0.7c-2.3,0-4.5,0-7,0
			c0-0.5,0-1.1,0-1.7c0-8.9,0-17.9,0-26.8c0-7.1-4.2-12.8-10.8-14.5c-3.9-1-7.9-1-11.7,0c-6.6,1.7-10.7,7.4-10.8,14.4
			c0,8.9,0,17.8,0,26.7c0,0.6,0,1.2,0,1.9c-2.3,0-4.6,0-7.1,0c0-0.6,0-1.2,0-1.8c0-8.4,0.1-16.7,0-25
			C336,154.2,340.8,146.7,350.9,142.4z M360.1,119.7c-5.1,0-9.2,4.1-9.2,9.2c0,5,4.1,9.1,9.2,9.2c5,0,9.2-4.1,9.2-9.2
			C369.3,123.7,365.3,119.7,360.1,119.7z"/>
		<path class="st1" d="M387.9,47.3c13.5,0,24.4,10.7,24.6,24c0.2,14-11.8,25.6-25.7,24.6c-2-0.1-3.3,0.4-4.7,1.7
			c-3.9,3.4-7.9,6.8-11.8,10.1c-1.6,1.4-3.3,1.5-4.7,0.5c-1.4-1-1.8-2.5-1.1-4.5c1.7-4.8,3.4-9.6,5.1-14.3c0.4-1,0.3-1.7-0.4-2.6
			c-5.7-7.4-7-15.6-3.5-24.2s10.2-13.5,19.4-15C386.1,47.3,387.1,47.4,387.9,47.3z M375.6,93.5c0.1,0,0.2,0.1,0.3,0.1
			c1.7-1.4,3.3-2.8,4.9-4.2c1.1-0.9,2.2-1.1,3.6-0.9c2.1,0.2,4.2,0.5,6.3,0.2c9.6-1.3,16.3-10.7,14.4-20.2
			c-1.9-9.8-11.8-16-21.3-13.5c-13,3.5-17.3,19.5-7.8,28.9c1.6,1.6,1.9,3.2,1.1,5.2C376.6,90.5,376.1,92,375.6,93.5z"/>
		<path class="st1" d="M382.8,81.1c-1.5-1.5-2.7-2.7-4.1-4.1c1.9-1.7,3.8-3.5,5.8-5.4c-2-1.9-3.9-3.6-5.8-5.4c1.4-1.4,2.7-2.5,4-3.8
			c1.7,1.7,3.4,3.5,5.3,5.4c1.9-2,3.7-3.8,5.5-5.7c1.3,1.5,2.4,2.8,3.6,4c-1.6,1.5-3.4,3.3-5.4,5.2c2.1,2,3.9,3.7,5.7,5.4
			c-1.4,1.4-2.6,2.5-3.8,3.7c-1.5-1.6-3.3-3.4-5.1-5.3C386.4,77.4,384.6,79.3,382.8,81.1z"/>
	</g>
</g>
</svg>
